<svg width="20" height="20" viewBox="0 0 20 20" fill="none" xmlns="http://www.w3.org/2000/svg">
<path d="M18.3333 9.08341V3.41675C18.3333 2.16675 17.8 1.66675 16.475 1.66675H13.1083C11.7833 1.66675 11.25 2.16675 11.25 3.41675V9.08341C11.25 10.3334 11.7833 10.8334 13.1083 10.8334H16.475C17.8 10.8334 18.3333 10.3334 18.3333 9.08341Z" stroke="#777D93" stroke-width="1.5" stroke-linecap="round" stroke-linejoin="round"/>
<path d="M18.3333 16.5833V15.0833C18.3333 13.8333 17.8 13.3333 16.475 13.3333H13.1083C11.7833 13.3333 11.25 13.8333 11.25 15.0833V16.5833C11.25 17.8333 11.7833 18.3333 13.1083 18.3333H16.475C17.8 18.3333 18.3333 17.8333 18.3333 16.5833Z" stroke="#777D93" stroke-width="1.5" stroke-linecap="round" stroke-linejoin="round"/>
<path d="M8.75033 10.9165V16.5832C8.75033 17.8332 8.21699 18.3332 6.89199 18.3332H3.52533C2.20033 18.3332 1.66699 17.8332 1.66699 16.5832V10.9165C1.66699 9.6665 2.20033 9.1665 3.52533 9.1665H6.89199C8.21699 9.1665 8.75033 9.6665 8.75033 10.9165Z" stroke="#777D93" stroke-width="1.5" stroke-linecap="round" stroke-linejoin="round"/>
<path d="M8.75033 3.4165V4.9165C8.75033 6.1665 8.21699 6.6665 6.89199 6.6665H3.52533C2.20033 6.6665 1.66699 6.1665 1.66699 4.9165V3.4165C1.66699 2.1665 2.20033 1.6665 3.52533 1.6665H6.89199C8.21699 1.6665 8.75033 2.1665 8.75033 3.4165Z" stroke="#777D93" stroke-width="1.5" stroke-linecap="round" stroke-linejoin="round"/>
</svg>
