<svg width="21" height="21" viewBox="0 0 21 21" fill="none" xmlns="http://www.w3.org/2000/svg">
<mask id="path-1-outside-1_62_160" maskUnits="userSpaceOnUse" x="-0.800049" y="-0.800049" width="22" height="22" fill="black">
<rect fill="white" x="-0.800049" y="-0.800049" width="22" height="22"/>
<path fill-rule="evenodd" clip-rule="evenodd" d="M7.79799 9.23814C7.04738 8.50117 6.32406 7.77786 5.5871 7.05454C5.54615 7.0136 5.43697 7.0136 5.36874 7.02724C4.65907 7.23196 4.00399 7.10913 3.41715 6.65876C3.29432 6.56323 3.19879 6.45405 3.11691 6.33123C2.32535 5.1166 1.5338 3.91562 0.742248 2.701C0.537536 2.40075 0.551183 2.26428 0.810485 2.00498C1.28815 1.52732 1.75216 1.0633 2.22982 0.585642C2.48912 0.32634 2.61195 0.312693 2.92584 0.517405C4.11317 1.28166 5.3005 2.05957 6.48783 2.83747C7.15656 3.27419 7.38856 3.92927 7.36127 4.69353C7.36127 4.78906 7.34762 4.89824 7.30668 4.98012C7.18385 5.22578 7.29303 5.3759 7.47045 5.55332C8.09823 6.16746 8.71237 6.78159 9.3265 7.40937C9.38109 7.46396 9.42204 7.5322 9.49027 7.62773C9.65404 7.45032 9.77687 7.31384 9.91334 7.17737C10.5684 6.52229 11.2235 5.85356 11.8922 5.19849C12.0014 5.08931 12.0696 4.96648 12.0833 4.80271C12.1925 4.0521 12.3016 3.30149 12.3972 2.53723C12.4381 2.16875 12.6019 1.8685 12.8612 1.62285C13.5436 0.92683 14.4034 0.585643 15.3041 0.353636C16.1093 0.148924 16.9145 0.135277 17.706 0.394579C17.8698 0.449168 18.0336 0.517406 18.1837 0.59929C18.5249 0.790355 18.5249 1.13154 18.1974 1.33625C17.6378 1.67744 17.0919 2.03227 16.5324 2.38711C16.4368 2.45534 16.3413 2.52358 16.2594 2.61912C16.0001 2.87842 15.9182 3.19231 16.0411 3.54714C16.1775 3.92927 16.3959 4.25681 16.6961 4.51611C17.1056 4.8573 17.5423 4.88459 17.9926 4.61164C18.4976 4.3114 18.9889 4.01116 19.4939 3.72456C19.8487 3.51985 20.1489 3.68362 20.1489 4.09304C20.1489 4.39328 20.1626 4.69353 20.1489 4.98012C20.1489 5.10295 20.108 5.23943 20.0398 5.32131C19.4939 6.03098 18.9343 6.71335 18.3748 7.40937C18.3338 7.46396 18.2792 7.51855 18.2246 7.57314C17.9517 7.90068 17.6242 8.03716 17.1874 8.02351C16.5597 7.99622 15.9182 8.0508 15.2768 8.0508C15.1403 8.0508 15.0311 8.09175 14.9356 8.20093C14.1441 8.99248 13.3389 9.78404 12.561 10.5483C12.9294 10.9168 13.2706 11.258 13.6391 11.6264C13.8575 11.4081 14.1168 11.1488 14.3624 10.8895C14.6763 10.5756 14.8537 10.5756 15.154 10.8895C16.6279 12.3634 18.0882 13.8237 19.5621 15.2976C20.5447 16.2802 20.613 17.8633 19.6986 18.9415C19.18 19.5556 18.5658 19.9923 17.747 20.0742C16.9281 20.1561 16.1912 19.9377 15.6043 19.3646C14.0758 17.8633 12.561 16.3348 11.0461 14.8199C10.8414 14.6152 10.855 14.4105 11.0461 14.2058C11.3327 13.9192 11.6193 13.6326 11.8649 13.387C11.5101 13.0185 11.1826 12.6636 10.8414 12.3088C10.8004 12.3498 10.7595 12.3771 10.7185 12.418C9.8724 13.2641 9.01261 14.1103 8.18012 14.9564C8.11188 15.0247 8.05729 15.1475 8.05729 15.243C8.02999 15.9663 8.01635 16.6896 8.01635 17.3993C8.01635 17.6177 7.96176 17.7951 7.81164 17.9452C7.42951 18.3 7.06103 18.6685 6.6516 18.9961C6.21488 19.3646 5.75087 19.6921 5.3005 20.0333C5.20497 20.1015 5.06849 20.1425 4.95931 20.1561C4.65907 20.1698 4.35882 20.1698 4.07223 20.1561C3.6628 20.1561 3.49904 19.8559 3.70375 19.5147C4.00399 18.9961 4.30424 18.4775 4.63177 17.9589C4.86378 17.5904 4.83649 17.2355 4.64542 16.8944C4.37247 16.4303 3.93576 16.1438 3.41715 16.0073C2.98043 15.8981 2.65289 16.1165 2.42089 16.4713C2.06605 17.0172 1.71122 17.5767 1.37003 18.1226C1.2745 18.2864 1.17897 18.4229 0.960608 18.4229C0.742248 18.4229 0.633069 18.2728 0.551184 18.0953C0.223645 17.3993 0.141762 16.676 0.237294 15.9254C0.373769 14.9018 0.7286 13.9465 1.35638 13.1277C1.45192 13.0048 1.57474 12.8957 1.68392 12.7865C1.99781 12.4726 2.39359 12.4043 2.80302 12.3498C3.48539 12.2679 4.18141 12.1587 4.86378 12.0632C4.94567 12.0495 5.0412 12.0086 5.10944 11.954C5.98287 11.0805 6.85631 10.2071 7.7434 9.33367C7.72975 9.32002 7.7434 9.29273 7.79799 9.23814ZM4.63177 19.4191C4.7546 19.3918 4.86378 19.4055 4.91837 19.3509C5.64169 18.7641 6.365 18.1772 7.08832 17.5767C7.14291 17.5221 7.18385 17.4266 7.18385 17.3447C7.21115 16.5668 7.23844 15.7889 7.26574 15.011C7.26574 14.8199 7.33398 14.6835 7.47045 14.5606C8.35754 13.6872 9.23097 12.8001 10.1044 11.913C10.159 11.8584 10.2272 11.8312 10.2682 11.7902C10.0225 11.5446 9.80416 11.3262 9.54486 11.0805C9.51757 11.1215 9.47662 11.1897 9.42204 11.2443C8.57589 12.1041 7.7161 12.9502 6.86996 13.7964C6.81537 13.851 6.77443 13.9056 6.70619 13.9465C6.55607 14.0557 6.33771 14.0284 6.21488 13.8919C6.09205 13.7554 6.06476 13.5507 6.17394 13.4006C6.21488 13.346 6.26947 13.2914 6.32406 13.2368C7.1702 12.3907 8.02999 11.5309 8.87614 10.6848C8.93073 10.6302 8.99897 10.6029 9.03991 10.5756C8.78061 10.3026 8.5486 10.0706 8.30294 9.82498C8.262 9.87957 8.22106 9.93416 8.16647 9.98875C7.29303 10.8758 6.40595 11.7493 5.53251 12.6227C5.43698 12.7182 5.28686 12.8001 5.15038 12.8274C4.38612 12.9502 3.62186 13.0731 2.8576 13.155C2.42089 13.1959 2.12064 13.387 1.88863 13.7282C1.30179 14.5743 0.94696 15.5023 0.94696 16.5395C0.94696 16.7306 0.974257 16.9217 0.987904 17.0991C1.06979 17.0445 1.09708 17.0035 1.13802 16.949C1.35638 16.6214 1.5611 16.2802 1.80675 15.9663C2.25712 15.3795 2.8576 15.1065 3.60822 15.2976C4.2087 15.4477 4.72731 15.7889 5.10944 16.2802C5.64169 16.9626 5.68263 17.6996 5.24591 18.4365C5.0412 18.7368 4.85013 19.0507 4.63177 19.4191ZM14.7582 11.6264C13.7892 12.5954 12.8203 13.5644 11.8376 14.547C11.8513 14.5606 11.8786 14.6016 11.9195 14.6289C13.2843 15.9936 14.649 17.372 16.0138 18.7368C16.1639 18.8869 16.3549 19.0234 16.5597 19.1325C17.2284 19.4737 18.1701 19.4191 18.9207 18.6276C19.7395 17.7542 19.7532 16.6214 18.907 15.7616C17.5696 14.4242 16.2458 13.1004 14.9083 11.7629C14.8537 11.7083 14.7991 11.6674 14.7582 11.6264ZM11.9878 10.0433C12.0287 9.98875 12.0696 9.93415 12.1242 9.89321C12.9294 9.10166 13.721 8.29646 14.5398 7.50491C14.649 7.40937 14.8128 7.32749 14.9493 7.31384C15.7272 7.2729 16.4914 7.2456 17.2693 7.23196C17.4058 7.23196 17.515 7.19101 17.5969 7.09548C18.1701 6.39946 18.7433 5.68979 19.3028 4.98012C19.3574 4.91189 19.3437 4.81636 19.371 4.67988C18.9753 4.91189 18.6204 5.10295 18.2929 5.32131C17.8971 5.56697 17.4877 5.60791 17.051 5.51238C16.1093 5.29402 15.5907 4.62529 15.2904 3.7655C15.0721 3.13772 15.1949 2.56453 15.6589 2.07322C15.8363 1.88215 16.0411 1.73203 16.2594 1.58191C16.5187 1.39084 16.8053 1.21343 17.1056 1.02236C16.5324 0.926828 16.0138 0.954123 15.4815 1.0906C14.8128 1.26802 14.1714 1.52732 13.6255 1.95039C13.3934 2.12781 13.1887 2.33252 13.1478 2.64641C13.0386 3.43796 12.9158 4.22952 12.8203 5.02107C12.793 5.26672 12.6838 5.45779 12.5064 5.6352C11.7285 6.39946 10.9642 7.17737 10.1863 7.94163C10.1317 7.99622 10.0908 8.05081 10.0498 8.09175C10.2818 8.32376 10.5138 8.55576 10.7731 8.80141C10.8141 8.76047 10.855 8.69224 10.9096 8.63765C11.6739 7.87339 12.4381 7.10913 13.216 6.33123C13.257 6.29028 13.2843 6.24934 13.3252 6.22204C13.489 6.08557 13.7073 6.08557 13.8575 6.23569C13.9939 6.38582 14.0076 6.59053 13.8711 6.7543C13.8302 6.79524 13.7892 6.83618 13.7483 6.87712C12.984 7.65503 12.2061 8.41929 11.4419 9.19719C11.3873 9.25178 11.3463 9.30637 11.3054 9.33367C11.5374 9.59297 11.7557 9.81133 11.9878 10.0433ZM1.49286 2.4417C1.52015 2.49629 1.5611 2.55088 1.60204 2.60547C2.28441 3.65632 2.96679 4.69353 3.64916 5.74438C4.05858 6.37217 4.90473 6.53594 5.49157 6.07192C5.77816 5.83992 6.05111 5.58061 6.26947 5.29402C6.74713 4.69353 6.58336 3.84739 5.94193 3.43796C5.0412 2.85112 4.15411 2.26428 3.25338 1.67744C3.04867 1.54096 2.83031 1.40449 2.63924 1.28166C2.27076 1.67744 1.88863 2.05957 1.49286 2.4417ZM6.21488 6.52229C8.2893 8.5967 10.3774 10.6848 12.4381 12.7455C12.6155 12.5818 12.793 12.3907 12.9567 12.2406C10.8823 10.1662 8.8079 8.0781 6.74713 6.01733C6.56971 6.1811 6.37865 6.35852 6.21488 6.52229Z"/>
</mask>
<path fill-rule="evenodd" clip-rule="evenodd" d="M7.79799 9.23814C7.04738 8.50117 6.32406 7.77786 5.5871 7.05454C5.54615 7.0136 5.43697 7.0136 5.36874 7.02724C4.65907 7.23196 4.00399 7.10913 3.41715 6.65876C3.29432 6.56323 3.19879 6.45405 3.11691 6.33123C2.32535 5.1166 1.5338 3.91562 0.742248 2.701C0.537536 2.40075 0.551183 2.26428 0.810485 2.00498C1.28815 1.52732 1.75216 1.0633 2.22982 0.585642C2.48912 0.32634 2.61195 0.312693 2.92584 0.517405C4.11317 1.28166 5.3005 2.05957 6.48783 2.83747C7.15656 3.27419 7.38856 3.92927 7.36127 4.69353C7.36127 4.78906 7.34762 4.89824 7.30668 4.98012C7.18385 5.22578 7.29303 5.3759 7.47045 5.55332C8.09823 6.16746 8.71237 6.78159 9.3265 7.40937C9.38109 7.46396 9.42204 7.5322 9.49027 7.62773C9.65404 7.45032 9.77687 7.31384 9.91334 7.17737C10.5684 6.52229 11.2235 5.85356 11.8922 5.19849C12.0014 5.08931 12.0696 4.96648 12.0833 4.80271C12.1925 4.0521 12.3016 3.30149 12.3972 2.53723C12.4381 2.16875 12.6019 1.8685 12.8612 1.62285C13.5436 0.92683 14.4034 0.585643 15.3041 0.353636C16.1093 0.148924 16.9145 0.135277 17.706 0.394579C17.8698 0.449168 18.0336 0.517406 18.1837 0.59929C18.5249 0.790355 18.5249 1.13154 18.1974 1.33625C17.6378 1.67744 17.0919 2.03227 16.5324 2.38711C16.4368 2.45534 16.3413 2.52358 16.2594 2.61912C16.0001 2.87842 15.9182 3.19231 16.0411 3.54714C16.1775 3.92927 16.3959 4.25681 16.6961 4.51611C17.1056 4.8573 17.5423 4.88459 17.9926 4.61164C18.4976 4.3114 18.9889 4.01116 19.4939 3.72456C19.8487 3.51985 20.1489 3.68362 20.1489 4.09304C20.1489 4.39328 20.1626 4.69353 20.1489 4.98012C20.1489 5.10295 20.108 5.23943 20.0398 5.32131C19.4939 6.03098 18.9343 6.71335 18.3748 7.40937C18.3338 7.46396 18.2792 7.51855 18.2246 7.57314C17.9517 7.90068 17.6242 8.03716 17.1874 8.02351C16.5597 7.99622 15.9182 8.0508 15.2768 8.0508C15.1403 8.0508 15.0311 8.09175 14.9356 8.20093C14.1441 8.99248 13.3389 9.78404 12.561 10.5483C12.9294 10.9168 13.2706 11.258 13.6391 11.6264C13.8575 11.4081 14.1168 11.1488 14.3624 10.8895C14.6763 10.5756 14.8537 10.5756 15.154 10.8895C16.6279 12.3634 18.0882 13.8237 19.5621 15.2976C20.5447 16.2802 20.613 17.8633 19.6986 18.9415C19.18 19.5556 18.5658 19.9923 17.747 20.0742C16.9281 20.1561 16.1912 19.9377 15.6043 19.3646C14.0758 17.8633 12.561 16.3348 11.0461 14.8199C10.8414 14.6152 10.855 14.4105 11.0461 14.2058C11.3327 13.9192 11.6193 13.6326 11.8649 13.387C11.5101 13.0185 11.1826 12.6636 10.8414 12.3088C10.8004 12.3498 10.7595 12.3771 10.7185 12.418C9.8724 13.2641 9.01261 14.1103 8.18012 14.9564C8.11188 15.0247 8.05729 15.1475 8.05729 15.243C8.02999 15.9663 8.01635 16.6896 8.01635 17.3993C8.01635 17.6177 7.96176 17.7951 7.81164 17.9452C7.42951 18.3 7.06103 18.6685 6.6516 18.9961C6.21488 19.3646 5.75087 19.6921 5.3005 20.0333C5.20497 20.1015 5.06849 20.1425 4.95931 20.1561C4.65907 20.1698 4.35882 20.1698 4.07223 20.1561C3.6628 20.1561 3.49904 19.8559 3.70375 19.5147C4.00399 18.9961 4.30424 18.4775 4.63177 17.9589C4.86378 17.5904 4.83649 17.2355 4.64542 16.8944C4.37247 16.4303 3.93576 16.1438 3.41715 16.0073C2.98043 15.8981 2.65289 16.1165 2.42089 16.4713C2.06605 17.0172 1.71122 17.5767 1.37003 18.1226C1.2745 18.2864 1.17897 18.4229 0.960608 18.4229C0.742248 18.4229 0.633069 18.2728 0.551184 18.0953C0.223645 17.3993 0.141762 16.676 0.237294 15.9254C0.373769 14.9018 0.7286 13.9465 1.35638 13.1277C1.45192 13.0048 1.57474 12.8957 1.68392 12.7865C1.99781 12.4726 2.39359 12.4043 2.80302 12.3498C3.48539 12.2679 4.18141 12.1587 4.86378 12.0632C4.94567 12.0495 5.0412 12.0086 5.10944 11.954C5.98287 11.0805 6.85631 10.2071 7.7434 9.33367C7.72975 9.32002 7.7434 9.29273 7.79799 9.23814ZM4.63177 19.4191C4.7546 19.3918 4.86378 19.4055 4.91837 19.3509C5.64169 18.7641 6.365 18.1772 7.08832 17.5767C7.14291 17.5221 7.18385 17.4266 7.18385 17.3447C7.21115 16.5668 7.23844 15.7889 7.26574 15.011C7.26574 14.8199 7.33398 14.6835 7.47045 14.5606C8.35754 13.6872 9.23097 12.8001 10.1044 11.913C10.159 11.8584 10.2272 11.8312 10.2682 11.7902C10.0225 11.5446 9.80416 11.3262 9.54486 11.0805C9.51757 11.1215 9.47662 11.1897 9.42204 11.2443C8.57589 12.1041 7.7161 12.9502 6.86996 13.7964C6.81537 13.851 6.77443 13.9056 6.70619 13.9465C6.55607 14.0557 6.33771 14.0284 6.21488 13.8919C6.09205 13.7554 6.06476 13.5507 6.17394 13.4006C6.21488 13.346 6.26947 13.2914 6.32406 13.2368C7.1702 12.3907 8.02999 11.5309 8.87614 10.6848C8.93073 10.6302 8.99897 10.6029 9.03991 10.5756C8.78061 10.3026 8.5486 10.0706 8.30294 9.82498C8.262 9.87957 8.22106 9.93416 8.16647 9.98875C7.29303 10.8758 6.40595 11.7493 5.53251 12.6227C5.43698 12.7182 5.28686 12.8001 5.15038 12.8274C4.38612 12.9502 3.62186 13.0731 2.8576 13.155C2.42089 13.1959 2.12064 13.387 1.88863 13.7282C1.30179 14.5743 0.94696 15.5023 0.94696 16.5395C0.94696 16.7306 0.974257 16.9217 0.987904 17.0991C1.06979 17.0445 1.09708 17.0035 1.13802 16.949C1.35638 16.6214 1.5611 16.2802 1.80675 15.9663C2.25712 15.3795 2.8576 15.1065 3.60822 15.2976C4.2087 15.4477 4.72731 15.7889 5.10944 16.2802C5.64169 16.9626 5.68263 17.6996 5.24591 18.4365C5.0412 18.7368 4.85013 19.0507 4.63177 19.4191ZM14.7582 11.6264C13.7892 12.5954 12.8203 13.5644 11.8376 14.547C11.8513 14.5606 11.8786 14.6016 11.9195 14.6289C13.2843 15.9936 14.649 17.372 16.0138 18.7368C16.1639 18.8869 16.3549 19.0234 16.5597 19.1325C17.2284 19.4737 18.1701 19.4191 18.9207 18.6276C19.7395 17.7542 19.7532 16.6214 18.907 15.7616C17.5696 14.4242 16.2458 13.1004 14.9083 11.7629C14.8537 11.7083 14.7991 11.6674 14.7582 11.6264ZM11.9878 10.0433C12.0287 9.98875 12.0696 9.93415 12.1242 9.89321C12.9294 9.10166 13.721 8.29646 14.5398 7.50491C14.649 7.40937 14.8128 7.32749 14.9493 7.31384C15.7272 7.2729 16.4914 7.2456 17.2693 7.23196C17.4058 7.23196 17.515 7.19101 17.5969 7.09548C18.1701 6.39946 18.7433 5.68979 19.3028 4.98012C19.3574 4.91189 19.3437 4.81636 19.371 4.67988C18.9753 4.91189 18.6204 5.10295 18.2929 5.32131C17.8971 5.56697 17.4877 5.60791 17.051 5.51238C16.1093 5.29402 15.5907 4.62529 15.2904 3.7655C15.0721 3.13772 15.1949 2.56453 15.6589 2.07322C15.8363 1.88215 16.0411 1.73203 16.2594 1.58191C16.5187 1.39084 16.8053 1.21343 17.1056 1.02236C16.5324 0.926828 16.0138 0.954123 15.4815 1.0906C14.8128 1.26802 14.1714 1.52732 13.6255 1.95039C13.3934 2.12781 13.1887 2.33252 13.1478 2.64641C13.0386 3.43796 12.9158 4.22952 12.8203 5.02107C12.793 5.26672 12.6838 5.45779 12.5064 5.6352C11.7285 6.39946 10.9642 7.17737 10.1863 7.94163C10.1317 7.99622 10.0908 8.05081 10.0498 8.09175C10.2818 8.32376 10.5138 8.55576 10.7731 8.80141C10.8141 8.76047 10.855 8.69224 10.9096 8.63765C11.6739 7.87339 12.4381 7.10913 13.216 6.33123C13.257 6.29028 13.2843 6.24934 13.3252 6.22204C13.489 6.08557 13.7073 6.08557 13.8575 6.23569C13.9939 6.38582 14.0076 6.59053 13.8711 6.7543C13.8302 6.79524 13.7892 6.83618 13.7483 6.87712C12.984 7.65503 12.2061 8.41929 11.4419 9.19719C11.3873 9.25178 11.3463 9.30637 11.3054 9.33367C11.5374 9.59297 11.7557 9.81133 11.9878 10.0433ZM1.49286 2.4417C1.52015 2.49629 1.5611 2.55088 1.60204 2.60547C2.28441 3.65632 2.96679 4.69353 3.64916 5.74438C4.05858 6.37217 4.90473 6.53594 5.49157 6.07192C5.77816 5.83992 6.05111 5.58061 6.26947 5.29402C6.74713 4.69353 6.58336 3.84739 5.94193 3.43796C5.0412 2.85112 4.15411 2.26428 3.25338 1.67744C3.04867 1.54096 2.83031 1.40449 2.63924 1.28166C2.27076 1.67744 1.88863 2.05957 1.49286 2.4417ZM6.21488 6.52229C8.2893 8.5967 10.3774 10.6848 12.4381 12.7455C12.6155 12.5818 12.793 12.3907 12.9567 12.2406C10.8823 10.1662 8.8079 8.0781 6.74713 6.01733C6.56971 6.1811 6.37865 6.35852 6.21488 6.52229Z" fill="#777D93"/>
<path fill-rule="evenodd" clip-rule="evenodd" d="M7.79799 9.23814C7.04738 8.50117 6.32406 7.77786 5.5871 7.05454C5.54615 7.0136 5.43697 7.0136 5.36874 7.02724C4.65907 7.23196 4.00399 7.10913 3.41715 6.65876C3.29432 6.56323 3.19879 6.45405 3.11691 6.33123C2.32535 5.1166 1.5338 3.91562 0.742248 2.701C0.537536 2.40075 0.551183 2.26428 0.810485 2.00498C1.28815 1.52732 1.75216 1.0633 2.22982 0.585642C2.48912 0.32634 2.61195 0.312693 2.92584 0.517405C4.11317 1.28166 5.3005 2.05957 6.48783 2.83747C7.15656 3.27419 7.38856 3.92927 7.36127 4.69353C7.36127 4.78906 7.34762 4.89824 7.30668 4.98012C7.18385 5.22578 7.29303 5.3759 7.47045 5.55332C8.09823 6.16746 8.71237 6.78159 9.3265 7.40937C9.38109 7.46396 9.42204 7.5322 9.49027 7.62773C9.65404 7.45032 9.77687 7.31384 9.91334 7.17737C10.5684 6.52229 11.2235 5.85356 11.8922 5.19849C12.0014 5.08931 12.0696 4.96648 12.0833 4.80271C12.1925 4.0521 12.3016 3.30149 12.3972 2.53723C12.4381 2.16875 12.6019 1.8685 12.8612 1.62285C13.5436 0.92683 14.4034 0.585643 15.3041 0.353636C16.1093 0.148924 16.9145 0.135277 17.706 0.394579C17.8698 0.449168 18.0336 0.517406 18.1837 0.59929C18.5249 0.790355 18.5249 1.13154 18.1974 1.33625C17.6378 1.67744 17.0919 2.03227 16.5324 2.38711C16.4368 2.45534 16.3413 2.52358 16.2594 2.61912C16.0001 2.87842 15.9182 3.19231 16.0411 3.54714C16.1775 3.92927 16.3959 4.25681 16.6961 4.51611C17.1056 4.8573 17.5423 4.88459 17.9926 4.61164C18.4976 4.3114 18.9889 4.01116 19.4939 3.72456C19.8487 3.51985 20.1489 3.68362 20.1489 4.09304C20.1489 4.39328 20.1626 4.69353 20.1489 4.98012C20.1489 5.10295 20.108 5.23943 20.0398 5.32131C19.4939 6.03098 18.9343 6.71335 18.3748 7.40937C18.3338 7.46396 18.2792 7.51855 18.2246 7.57314C17.9517 7.90068 17.6242 8.03716 17.1874 8.02351C16.5597 7.99622 15.9182 8.0508 15.2768 8.0508C15.1403 8.0508 15.0311 8.09175 14.9356 8.20093C14.1441 8.99248 13.3389 9.78404 12.561 10.5483C12.9294 10.9168 13.2706 11.258 13.6391 11.6264C13.8575 11.4081 14.1168 11.1488 14.3624 10.8895C14.6763 10.5756 14.8537 10.5756 15.154 10.8895C16.6279 12.3634 18.0882 13.8237 19.5621 15.2976C20.5447 16.2802 20.613 17.8633 19.6986 18.9415C19.18 19.5556 18.5658 19.9923 17.747 20.0742C16.9281 20.1561 16.1912 19.9377 15.6043 19.3646C14.0758 17.8633 12.561 16.3348 11.0461 14.8199C10.8414 14.6152 10.855 14.4105 11.0461 14.2058C11.3327 13.9192 11.6193 13.6326 11.8649 13.387C11.5101 13.0185 11.1826 12.6636 10.8414 12.3088C10.8004 12.3498 10.7595 12.3771 10.7185 12.418C9.8724 13.2641 9.01261 14.1103 8.18012 14.9564C8.11188 15.0247 8.05729 15.1475 8.05729 15.243C8.02999 15.9663 8.01635 16.6896 8.01635 17.3993C8.01635 17.6177 7.96176 17.7951 7.81164 17.9452C7.42951 18.3 7.06103 18.6685 6.6516 18.9961C6.21488 19.3646 5.75087 19.6921 5.3005 20.0333C5.20497 20.1015 5.06849 20.1425 4.95931 20.1561C4.65907 20.1698 4.35882 20.1698 4.07223 20.1561C3.6628 20.1561 3.49904 19.8559 3.70375 19.5147C4.00399 18.9961 4.30424 18.4775 4.63177 17.9589C4.86378 17.5904 4.83649 17.2355 4.64542 16.8944C4.37247 16.4303 3.93576 16.1438 3.41715 16.0073C2.98043 15.8981 2.65289 16.1165 2.42089 16.4713C2.06605 17.0172 1.71122 17.5767 1.37003 18.1226C1.2745 18.2864 1.17897 18.4229 0.960608 18.4229C0.742248 18.4229 0.633069 18.2728 0.551184 18.0953C0.223645 17.3993 0.141762 16.676 0.237294 15.9254C0.373769 14.9018 0.7286 13.9465 1.35638 13.1277C1.45192 13.0048 1.57474 12.8957 1.68392 12.7865C1.99781 12.4726 2.39359 12.4043 2.80302 12.3498C3.48539 12.2679 4.18141 12.1587 4.86378 12.0632C4.94567 12.0495 5.0412 12.0086 5.10944 11.954C5.98287 11.0805 6.85631 10.2071 7.7434 9.33367C7.72975 9.32002 7.7434 9.29273 7.79799 9.23814ZM4.63177 19.4191C4.7546 19.3918 4.86378 19.4055 4.91837 19.3509C5.64169 18.7641 6.365 18.1772 7.08832 17.5767C7.14291 17.5221 7.18385 17.4266 7.18385 17.3447C7.21115 16.5668 7.23844 15.7889 7.26574 15.011C7.26574 14.8199 7.33398 14.6835 7.47045 14.5606C8.35754 13.6872 9.23097 12.8001 10.1044 11.913C10.159 11.8584 10.2272 11.8312 10.2682 11.7902C10.0225 11.5446 9.80416 11.3262 9.54486 11.0805C9.51757 11.1215 9.47662 11.1897 9.42204 11.2443C8.57589 12.1041 7.7161 12.9502 6.86996 13.7964C6.81537 13.851 6.77443 13.9056 6.70619 13.9465C6.55607 14.0557 6.33771 14.0284 6.21488 13.8919C6.09205 13.7554 6.06476 13.5507 6.17394 13.4006C6.21488 13.346 6.26947 13.2914 6.32406 13.2368C7.1702 12.3907 8.02999 11.5309 8.87614 10.6848C8.93073 10.6302 8.99897 10.6029 9.03991 10.5756C8.78061 10.3026 8.5486 10.0706 8.30294 9.82498C8.262 9.87957 8.22106 9.93416 8.16647 9.98875C7.29303 10.8758 6.40595 11.7493 5.53251 12.6227C5.43698 12.7182 5.28686 12.8001 5.15038 12.8274C4.38612 12.9502 3.62186 13.0731 2.8576 13.155C2.42089 13.1959 2.12064 13.387 1.88863 13.7282C1.30179 14.5743 0.94696 15.5023 0.94696 16.5395C0.94696 16.7306 0.974257 16.9217 0.987904 17.0991C1.06979 17.0445 1.09708 17.0035 1.13802 16.949C1.35638 16.6214 1.5611 16.2802 1.80675 15.9663C2.25712 15.3795 2.8576 15.1065 3.60822 15.2976C4.2087 15.4477 4.72731 15.7889 5.10944 16.2802C5.64169 16.9626 5.68263 17.6996 5.24591 18.4365C5.0412 18.7368 4.85013 19.0507 4.63177 19.4191ZM14.7582 11.6264C13.7892 12.5954 12.8203 13.5644 11.8376 14.547C11.8513 14.5606 11.8786 14.6016 11.9195 14.6289C13.2843 15.9936 14.649 17.372 16.0138 18.7368C16.1639 18.8869 16.3549 19.0234 16.5597 19.1325C17.2284 19.4737 18.1701 19.4191 18.9207 18.6276C19.7395 17.7542 19.7532 16.6214 18.907 15.7616C17.5696 14.4242 16.2458 13.1004 14.9083 11.7629C14.8537 11.7083 14.7991 11.6674 14.7582 11.6264ZM11.9878 10.0433C12.0287 9.98875 12.0696 9.93415 12.1242 9.89321C12.9294 9.10166 13.721 8.29646 14.5398 7.50491C14.649 7.40937 14.8128 7.32749 14.9493 7.31384C15.7272 7.2729 16.4914 7.2456 17.2693 7.23196C17.4058 7.23196 17.515 7.19101 17.5969 7.09548C18.1701 6.39946 18.7433 5.68979 19.3028 4.98012C19.3574 4.91189 19.3437 4.81636 19.371 4.67988C18.9753 4.91189 18.6204 5.10295 18.2929 5.32131C17.8971 5.56697 17.4877 5.60791 17.051 5.51238C16.1093 5.29402 15.5907 4.62529 15.2904 3.7655C15.0721 3.13772 15.1949 2.56453 15.6589 2.07322C15.8363 1.88215 16.0411 1.73203 16.2594 1.58191C16.5187 1.39084 16.8053 1.21343 17.1056 1.02236C16.5324 0.926828 16.0138 0.954123 15.4815 1.0906C14.8128 1.26802 14.1714 1.52732 13.6255 1.95039C13.3934 2.12781 13.1887 2.33252 13.1478 2.64641C13.0386 3.43796 12.9158 4.22952 12.8203 5.02107C12.793 5.26672 12.6838 5.45779 12.5064 5.6352C11.7285 6.39946 10.9642 7.17737 10.1863 7.94163C10.1317 7.99622 10.0908 8.05081 10.0498 8.09175C10.2818 8.32376 10.5138 8.55576 10.7731 8.80141C10.8141 8.76047 10.855 8.69224 10.9096 8.63765C11.6739 7.87339 12.4381 7.10913 13.216 6.33123C13.257 6.29028 13.2843 6.24934 13.3252 6.22204C13.489 6.08557 13.7073 6.08557 13.8575 6.23569C13.9939 6.38582 14.0076 6.59053 13.8711 6.7543C13.8302 6.79524 13.7892 6.83618 13.7483 6.87712C12.984 7.65503 12.2061 8.41929 11.4419 9.19719C11.3873 9.25178 11.3463 9.30637 11.3054 9.33367C11.5374 9.59297 11.7557 9.81133 11.9878 10.0433ZM1.49286 2.4417C1.52015 2.49629 1.5611 2.55088 1.60204 2.60547C2.28441 3.65632 2.96679 4.69353 3.64916 5.74438C4.05858 6.37217 4.90473 6.53594 5.49157 6.07192C5.77816 5.83992 6.05111 5.58061 6.26947 5.29402C6.74713 4.69353 6.58336 3.84739 5.94193 3.43796C5.0412 2.85112 4.15411 2.26428 3.25338 1.67744C3.04867 1.54096 2.83031 1.40449 2.63924 1.28166C2.27076 1.67744 1.88863 2.05957 1.49286 2.4417ZM6.21488 6.52229C8.2893 8.5967 10.3774 10.6848 12.4381 12.7455C12.6155 12.5818 12.793 12.3907 12.9567 12.2406C10.8823 10.1662 8.8079 8.0781 6.74713 6.01733C6.56971 6.1811 6.37865 6.35852 6.21488 6.52229Z" stroke="#777D93" stroke-width="0.4" mask="url(#path-1-outside-1_62_160)"/>
<path d="M13.7617 13.8623C13.864 13.5384 14.24 13.4189 14.5127 13.6191L14.5137 13.6182C14.5643 13.652 14.6126 13.7005 14.6514 13.7393L17.8584 16.9463C17.9097 16.9976 17.9494 17.063 17.9824 17.1221C18.0181 17.186 18.0446 17.2399 18.0771 17.292L18.0967 17.3223L18.0918 17.3574C18.0434 17.7436 17.6442 17.9806 17.3115 17.7705V17.7695C17.2432 17.7326 17.1806 17.6698 17.1445 17.6338C16.08 16.5693 15.0147 15.5049 13.9502 14.4404C13.88 14.3702 13.8107 14.2905 13.7705 14.1953C13.7286 14.096 13.7217 13.9864 13.7627 13.8623H13.7617Z" fill="#777D93" stroke="#777D93" stroke-width="0.2"/>
</svg>
