<svg width="20" height="20" viewBox="0 0 20 20" fill="none" xmlns="http://www.w3.org/2000/svg">
<path d="M15.3835 12.85L13.2215 15.012C13.136 15.0976 13.0566 15.2563 13.0382 15.3724L12.9222 16.1969C12.8795 16.4962 13.0871 16.7038 13.3864 16.6611L14.2109 16.545C14.3269 16.5267 14.4918 16.4473 14.5712 16.3618L16.7333 14.1997C17.1059 13.8272 17.283 13.3936 16.7333 12.8439C16.1898 12.3003 15.7561 12.4774 15.3835 12.85Z" stroke="#777D93" stroke-miterlimit="10" stroke-linecap="round" stroke-linejoin="round"/>
<path d="M15.0707 13.1614C15.2539 13.821 15.7669 14.334 16.4266 14.5173" stroke="#777D93" stroke-miterlimit="10" stroke-linecap="round" stroke-linejoin="round"/>
<path d="M6.66663 1.66675V4.16675" stroke="#777D93" stroke-width="1.5" stroke-miterlimit="10" stroke-linecap="round" stroke-linejoin="round"/>
<path d="M13.3334 1.66675V4.16675" stroke="#777D93" stroke-width="1.5" stroke-miterlimit="10" stroke-linecap="round" stroke-linejoin="round"/>
<path d="M17.5 7.08341V11.3584C16.7583 10.7668 15.8167 10.4167 14.7917 10.4167C13.7667 10.4167 12.8083 10.7751 12.0583 11.3834C11.05 12.1751 10.4167 13.4167 10.4167 14.7917C10.4167 15.6084 10.65 16.3918 11.05 17.0418C11.3583 17.5501 11.7583 17.9917 12.2333 18.3334H6.66667C3.75 18.3334 2.5 16.6667 2.5 14.1667V7.08341C2.5 4.58341 3.75 2.91675 6.66667 2.91675H13.3333C16.25 2.91675 17.5 4.58341 17.5 7.08341Z" stroke="#777D93" stroke-width="1.5" stroke-miterlimit="10" stroke-linecap="round" stroke-linejoin="round"/>
<path d="M5.83337 9.16675H10.8334" stroke="#777D93" stroke-width="1.5" stroke-miterlimit="10" stroke-linecap="round" stroke-linejoin="round"/>
<path d="M5.83337 13.3333H8.0167" stroke="#777D93" stroke-width="1.5" stroke-miterlimit="10" stroke-linecap="round" stroke-linejoin="round"/>
<path d="M19.1666 14.7917C19.1666 15.6084 18.9333 16.3918 18.5333 17.0418C18.3 17.4418 18.0083 17.7917 17.6666 18.0751C16.9 18.7584 15.9 19.1667 14.7916 19.1667C13.8333 19.1667 12.95 18.8584 12.2333 18.3334C11.7583 17.9917 11.3583 17.5501 11.05 17.0418C10.65 16.3918 10.4166 15.6084 10.4166 14.7917C10.4166 13.4167 11.05 12.1751 12.0583 11.3834C12.8083 10.7751 13.7666 10.4167 14.7916 10.4167C15.8166 10.4167 16.7583 10.7668 17.5 11.3584C18.5166 12.1584 19.1666 13.4001 19.1666 14.7917Z" stroke="#777D93" stroke-width="1.5" stroke-miterlimit="10" stroke-linecap="round" stroke-linejoin="round"/>
</svg>
