<svg width="260" height="260" viewBox="0 0 260 260" fill="none" xmlns="http://www.w3.org/2000/svg">
<path opacity="0.6" d="M167.436 124C166.873 170.772 166.423 171.319 127.936 172C166.423 172.681 166.873 173.228 167.436 220C167.998 173.228 168.449 172.681 206.936 172C168.449 171.319 167.998 170.772 167.436 124Z" fill="#877DDE"/>
<path d="M223.062 119.816C225.151 139.584 220.913 159.504 210.958 176.709C201.003 193.915 185.845 207.517 167.666 215.557C149.488 223.598 129.226 225.662 109.799 221.453C90.3726 217.243 72.7828 206.977 59.5628 192.133C46.3428 177.289 38.1747 158.632 36.2345 138.849C34.2943 119.067 38.6821 99.1786 48.7663 82.0487C58.8504 64.9189 74.1105 51.4312 92.3493 43.5276C110.588 35.6241 130.865 33.7125 150.259 38.0681L143.887 66.4438C130.499 63.4373 116.503 64.7568 103.913 70.2124C91.323 75.6681 80.7893 84.9783 73.8285 96.8026C66.8677 108.627 63.8388 122.355 65.1781 136.011C66.5174 149.666 72.1557 162.544 81.2811 172.791C90.4066 183.038 102.548 190.124 115.958 193.03C129.368 195.936 143.354 194.511 155.902 188.96C168.451 183.41 178.914 174.021 185.786 162.145C192.657 150.268 195.583 136.518 194.141 122.872L223.062 119.816Z" fill="url(#paint0_linear_139_38)"/>
<defs>
<linearGradient id="paint0_linear_139_38" x1="180.246" y1="50.5619" x2="79.1224" y2="208.807" gradientUnits="userSpaceOnUse">
<stop stop-color="#7168CD"/>
<stop offset="1" stop-color="#786EDB"/>
</linearGradient>
</defs>
</svg>
