<svg width="21" height="21" viewBox="0 0 21 21" fill="none" xmlns="http://www.w3.org/2000/svg">
<path d="M14.5531 12.2817C14.5052 12.2918 14.4426 12.313 14.3539 12.3423V12.3413C14.3265 12.3505 14.2893 12.3655 14.2513 12.3706C14.1741 12.3813 14.1499 12.3985 14.142 12.4126C14.138 12.4198 14.1352 12.4323 14.1371 12.4546C14.1391 12.4774 14.1457 12.508 14.1595 12.5474H14.1605C14.5737 13.7223 14.9735 14.9025 15.3773 16.0806C15.5075 16.4606 15.5419 16.7758 15.4623 17.064C15.3826 17.3521 15.1907 17.6061 14.8851 17.8677C14.475 18.2189 14.1265 18.6225 13.8168 19.1147C15.5588 18.5165 17.2614 17.9312 19.0043 17.3325C18.4359 17.1298 17.8884 17.0201 17.3226 17.0034C16.9828 16.9935 16.6943 16.9045 16.4623 16.7349C16.2302 16.5651 16.058 16.317 15.9467 15.9937C15.5518 14.8466 15.1589 13.6987 14.765 12.5513C14.7341 12.4612 14.7121 12.3973 14.6908 12.3521C14.6693 12.3065 14.6524 12.289 14.6381 12.2817C14.6239 12.2747 14.6008 12.2717 14.5531 12.2817ZM5.56384 11.8872C5.55638 11.8909 5.54599 11.899 5.53455 11.9175C5.52314 11.936 5.51208 11.9619 5.50037 11.9966C5.1024 13.1767 4.69475 14.3539 4.29138 15.5317C4.1578 15.9219 3.98995 16.198 3.74646 16.3784C3.5027 16.5589 3.18952 16.639 2.77771 16.6519C2.51106 16.6602 2.17695 16.7099 1.8656 16.7808C1.61282 16.8383 1.37857 16.9101 1.20837 16.9839C2.93799 17.5771 4.65626 18.1664 6.38708 18.7603C6.36711 18.7228 6.34129 18.6905 6.31384 18.6489C6.01782 18.1989 5.66074 17.8032 5.24841 17.4556C4.98502 17.2335 4.81493 16.9862 4.73962 16.7104C4.66442 16.4349 4.68572 16.1357 4.79724 15.8101C5.18398 14.681 5.56968 13.5512 5.95642 12.4224C5.96833 12.3876 5.9849 12.3525 6.00037 12.3188C6.01616 12.2845 6.0311 12.252 6.04431 12.2202C6.07178 12.1541 6.08291 12.1055 6.07263 12.0708C6.064 12.0419 6.03372 12.0233 5.96228 12.0073C5.94595 12.0037 5.92867 12.001 5.91052 11.9976C5.89254 11.9942 5.87365 11.9899 5.85486 11.9858C5.81746 11.9777 5.77726 11.967 5.74158 11.9487C5.73359 11.9447 5.72479 11.9419 5.7113 11.937C5.69906 11.9326 5.68205 11.9261 5.66638 11.9165C5.60241 11.8774 5.57595 11.8812 5.56384 11.8872ZM16.7269 7.56104C15.2136 7.76423 13.6995 7.96523 12.184 8.15381C12.102 8.16399 12.0618 8.18476 12.0375 8.21143C12.0246 8.22556 12.0141 8.2434 12.0052 8.26709L11.9818 8.35693C11.8623 8.99478 11.629 9.58981 11.266 10.1313C11.0454 10.4604 10.7813 10.7516 10.4935 11.021C12.3701 12.492 15.2159 11.8567 16.3441 9.70752C16.6795 9.06869 16.8285 8.38719 16.7963 7.6665C16.7954 7.64802 16.7963 7.62089 16.7963 7.60693C16.7962 7.58864 16.794 7.57675 16.7914 7.56982C16.7898 7.56585 16.7887 7.56376 16.7845 7.56201C16.7775 7.5591 16.7607 7.55652 16.7269 7.56104ZM14.4584 2.79639C14.4064 2.80787 14.3394 2.83065 14.2455 2.86279C13.4444 3.13675 12.6443 3.41284 11.8051 3.70166C11.9026 3.73588 11.9873 3.76475 12.0707 3.79541H12.0697C12.2753 3.87053 12.4272 3.98164 12.5179 4.13232C12.6088 4.28317 12.6346 4.46766 12.601 4.68213C12.4657 5.54147 12.3315 6.40125 12.1869 7.25928C12.18 7.30012 12.1785 7.328 12.181 7.34619C12.1834 7.36335 12.1889 7.36811 12.1908 7.36963C12.194 7.3721 12.2019 7.37628 12.222 7.37744C12.2424 7.37861 12.2694 7.37664 12.3051 7.37158C12.7942 7.3019 13.2855 7.2408 13.7748 7.17725C14.7023 7.05681 15.6298 6.93518 16.558 6.81885C16.5896 6.81489 16.6118 6.80939 16.6263 6.80322C16.6404 6.79725 16.6445 6.79192 16.6459 6.78955C16.6472 6.78725 16.6496 6.78135 16.6478 6.76709C16.6459 6.75202 16.6396 6.73083 16.6273 6.70264C16.5929 6.62375 16.5639 6.54203 16.5355 6.46338C16.5069 6.38402 16.4783 6.30658 16.4437 6.23291C15.9348 5.14794 15.3388 4.10927 14.7523 3.06201C14.7034 2.9746 14.6683 2.91203 14.6371 2.86768C14.6061 2.82373 14.5827 2.80418 14.5609 2.79541C14.5392 2.78682 14.5098 2.78507 14.4584 2.79639ZM5.62341 2.40479C5.61685 2.40918 5.60587 2.41872 5.59314 2.44189C5.24562 3.07606 4.88979 3.70596 4.5238 4.35986C6.11867 4.67818 7.68169 4.99049 9.24451 5.30322C9.99519 5.4536 10.7473 5.60162 11.4965 5.76318C11.583 5.78185 11.621 5.77413 11.64 5.76025C11.6591 5.74618 11.6765 5.71304 11.6859 5.62939C11.722 5.30598 11.7654 4.98093 11.8285 4.66064C11.8417 4.59281 11.8355 4.56333 11.8246 4.54639C11.8126 4.52792 11.7861 4.51066 11.722 4.48877C10.4151 4.04339 9.11056 3.58955 7.80505 3.14014C7.11262 2.90168 6.41937 2.66545 5.72595 2.4292C5.70825 2.42318 5.68555 2.41342 5.67322 2.40869C5.65818 2.40294 5.64791 2.40042 5.64001 2.3999C5.63363 2.39953 5.62888 2.40113 5.62341 2.40479ZM20.1508 17.5112L20.1459 17.522C20.0358 17.7503 19.8452 17.8642 19.6205 17.9399C18.4359 18.3388 17.2543 18.746 16.0717 19.1519C15.2062 19.4491 14.3412 19.7488 13.476 20.0474L13.4681 20.0503H13.2113L13.1996 20.0435C13.0011 19.9261 12.8743 19.8058 12.8304 19.6538C12.7867 19.5019 12.8307 19.3323 12.9349 19.1265C13.3078 18.3908 13.814 17.7621 14.4447 17.2329C14.5937 17.108 14.6817 16.9928 14.7201 16.8706C14.7582 16.749 14.7495 16.6135 14.6918 16.4448C14.2592 15.1809 13.8218 13.9177 13.391 12.6528C13.3738 12.6025 13.3591 12.5806 13.3441 12.5698C13.3301 12.5599 13.3061 12.553 13.2523 12.5581C12.0239 12.6734 10.9256 12.3341 9.9574 11.5786C9.91095 11.5424 9.88148 11.529 9.85583 11.5269C9.83081 11.5248 9.80003 11.5327 9.74939 11.563C8.89061 12.0774 7.95895 12.3067 6.9574 12.2056C6.89319 12.1992 6.86633 12.2118 6.85095 12.2261C6.83185 12.244 6.81872 12.2742 6.80017 12.3286C6.37946 13.563 5.95579 14.7968 5.53357 16.0308C5.46184 16.2405 5.44426 16.3872 5.47986 16.5142C5.51558 16.6413 5.6077 16.7584 5.77869 16.9019C6.41023 17.4318 6.90811 18.0675 7.28259 18.8003C7.35331 18.939 7.39 19.0678 7.38513 19.187C7.38012 19.3075 7.33312 19.4144 7.24646 19.5083C7.14662 19.6165 7.03601 19.6701 6.91638 19.6841C6.79857 19.6978 6.67578 19.6724 6.55115 19.6294C4.56459 18.9435 2.57595 18.2619 0.586304 17.5854C0.362203 17.5091 0.168441 17.3981 0.0550537 17.1704L0.0501709 17.1597V16.8218L0.0570068 16.8101C0.164448 16.6322 0.314225 16.5219 0.475952 16.4409C0.635115 16.3613 0.813048 16.3076 0.972046 16.2476C1.57075 16.0212 2.19365 15.8995 2.83533 15.8833C3.03902 15.8782 3.179 15.8406 3.28455 15.7622C3.39023 15.6837 3.46826 15.5592 3.53552 15.3638C3.9641 14.1187 4.39092 12.872 4.82458 11.6284C4.84357 11.5739 4.84308 11.5459 4.8363 11.5269C4.8293 11.5072 4.81091 11.4852 4.76404 11.4536V11.4546C2.74905 10.1014 2.0743 7.63224 3.12048 5.42627C3.6783 4.25037 4.33185 3.12473 4.97205 1.99658C5.07176 1.8209 5.20446 1.70421 5.36853 1.65186C5.53181 1.59981 5.71966 1.61365 5.92517 1.68408C7.44072 2.20386 8.95667 2.72397 10.4711 3.24756C10.5713 3.28207 10.6555 3.28581 10.7543 3.25146C11.9372 2.84216 13.1216 2.43637 14.306 2.03174C14.4983 1.96606 14.6794 1.95685 14.8383 2.00928C14.9977 2.06196 15.1293 2.17545 15.225 2.34521C15.8897 3.52529 16.5861 4.69572 17.1469 5.93604C18.0945 8.0324 17.3936 10.4888 15.4867 11.7739C15.4152 11.8222 15.3866 11.859 15.3763 11.894C15.3659 11.9301 15.3714 11.9768 15.3988 12.0552C15.8281 13.2796 16.246 14.5082 16.6683 15.7349C16.7328 15.9216 16.8109 16.0423 16.9164 16.1187C17.0219 16.195 17.1618 16.2327 17.3607 16.2388C18.2182 16.2648 19.03 16.4755 19.8031 16.8413C19.9742 16.9222 20.0627 17.0656 20.1439 17.2007L20.1508 17.2124V17.5112ZM3.3988 7.65576C3.53581 10.1574 5.82308 11.9196 8.20642 11.3579C9.70972 11.0036 10.6983 10.0655 11.1312 8.57275C11.3148 7.93988 11.4216 7.28721 11.5258 6.63232C11.5342 6.57939 11.5277 6.56356 11.5228 6.55713C11.5168 6.54921 11.5005 6.53767 11.4457 6.52686C9.76404 6.19421 8.08335 5.85614 6.40271 5.51904C5.70228 5.37854 5.00279 5.23522 4.30212 5.09912C4.27986 5.09484 4.25542 5.08682 4.23767 5.08154C4.21803 5.07572 4.2025 5.07241 4.18884 5.07178C4.17621 5.07122 4.16642 5.0732 4.15759 5.07861C4.14825 5.08435 4.13525 5.0962 4.12146 5.12256C3.74846 5.83443 3.41187 6.54333 3.39197 7.26514V7.41162L3.3988 7.65576Z" fill="#777D93" stroke="#777D93" stroke-width="0.1"/>
<path fill-rule="evenodd" clip-rule="evenodd" d="M12.9125 0C12.8994 0.0544616 12.9542 0.0532549 12.9777 0.0758323C13.1345 0.228014 13.1428 0.434658 12.9942 0.574432C12.8586 0.701968 12.6476 0.694901 12.5222 0.558575C12.3886 0.413287 12.4117 0.19975 12.5749 0.0610108C12.5973 0.0420526 12.6402 0.0436037 12.6394 0C12.7304 0 12.8215 0 12.9125 0Z" fill="#777D93"/>
<path fill-rule="evenodd" clip-rule="evenodd" d="M9.43358 0.663439C9.43496 0.845955 9.28037 1.00141 9.09837 1.00055C8.91585 0.999688 8.76643 0.844576 8.76971 0.659648C8.77281 0.480235 8.91241 0.340462 9.09234 0.336498C9.27933 0.332706 9.4322 0.479028 9.43358 0.663439Z" fill="#777D93"/>
<path fill-rule="evenodd" clip-rule="evenodd" d="M11.4304 1.34085C11.4268 1.52406 11.2672 1.6759 11.0873 1.66779C10.9132 1.66004 10.7678 1.50958 10.7664 1.33551C10.7646 1.15058 10.9146 1.00254 11.1023 1.00392C11.2913 1.00547 11.4342 1.15213 11.4304 1.34085Z" fill="#777D93"/>
<path fill-rule="evenodd" clip-rule="evenodd" d="M12.762 1.67114C12.7598 1.85917 12.6167 1.9986 12.428 1.9967C12.2464 1.99481 12.0944 1.84073 12.0975 1.66183C12.1007 1.4838 12.2595 1.32972 12.4375 1.33231C12.6198 1.33489 12.7641 1.4857 12.762 1.67114Z" fill="#777D93"/>
<path fill-rule="evenodd" clip-rule="evenodd" d="M7.44064 0.666098C7.62402 0.670407 7.76586 0.820693 7.76224 1.00717C7.75862 1.19434 7.61264 1.33446 7.42548 1.33067C7.24469 1.32688 7.09302 1.17021 7.09802 0.991834C7.10302 0.813282 7.26227 0.661962 7.44064 0.666098Z" fill="#777D93"/>
<path fill-rule="evenodd" clip-rule="evenodd" d="M9.7603 2.33566C9.58158 2.33153 9.43233 2.17417 9.4356 1.99373C9.43905 1.80742 9.58502 1.66834 9.77357 1.67144C9.95953 1.67454 10.104 1.82293 10.0998 2.007C10.096 2.18606 9.93713 2.3398 9.7603 2.33566Z" fill="#777D93"/>
<path d="M9.43103 6.95703L9.5033 6.97754L9.57263 7.01172C9.63728 7.05095 9.68702 7.10525 9.71716 7.1709C9.75726 7.25828 9.76007 7.36153 9.72595 7.46875C9.5758 7.93973 9.3624 8.38192 9.07849 8.78711C8.46483 9.66328 7.67185 10.3021 6.61462 10.5762C6.55672 10.5913 6.4949 10.6012 6.45935 10.6084L6.44763 10.6113V10.6094C6.34576 10.6051 6.25822 10.5802 6.1908 10.5293C6.12264 10.4777 6.07903 10.4032 6.05994 10.3105C6.04032 10.2154 6.04835 10.1253 6.08826 10.0488C6.12832 9.97208 6.19793 9.91368 6.29138 9.87695C6.35142 9.85341 6.41361 9.8363 6.47302 9.82031C6.53311 9.80414 6.59055 9.78947 6.64587 9.76953C7.79954 9.35247 8.508 8.50336 8.94568 7.38574C8.95815 7.35402 8.96887 7.32186 8.98083 7.28711C8.99255 7.25308 9.00544 7.2173 9.02185 7.18262L9.06091 7.11426C9.10418 7.05156 9.15987 7.00493 9.224 6.97754C9.28843 6.95009 9.35939 6.94309 9.43103 6.95703Z" fill="#777D93" stroke="#777D93" stroke-width="0.1"/>
<path d="M14.931 8.95435C15.0787 8.98421 15.1543 9.14411 15.1498 9.34009V9.34302C15.0934 9.99118 14.8738 10.5493 14.472 10.97C14.4152 11.0295 14.3469 11.0591 14.2767 11.0481C14.2082 11.0373 14.1506 10.9898 14.1088 10.9231C14.0246 10.7888 14.0276 10.5864 14.141 10.4622C14.4267 10.1488 14.5882 9.74585 14.6381 9.24634C14.6476 9.15087 14.6818 9.07179 14.7338 9.0188C14.7864 8.96512 14.8571 8.93957 14.931 8.95435Z" fill="#777D93" stroke="#777D93" stroke-width="0.1"/>
</svg>
