<svg width="16" height="10" viewBox="0 0 16 10" fill="none" xmlns="http://www.w3.org/2000/svg">
<path d="M15.4481 3.02637C15.5001 2.97886 15.5405 2.92133 15.5666 2.85776C15.5926 2.79418 15.6037 2.72606 15.5989 2.6581C15.5942 2.59013 15.5738 2.52394 15.5392 2.46407C15.5046 2.4042 15.4566 2.35209 15.3984 2.31132C13.1905 0.805314 10.5298 -0.00401568 7.8 1.65245e-05C5.07014 -0.00421705 2.40941 0.805132 0.201603 2.31132C0.143447 2.35209 0.0954043 2.4042 0.0607842 2.46407C0.026164 2.52394 0.00578967 2.59013 0.00106483 2.6581C-0.00366001 2.72606 0.00737697 2.79418 0.0334154 2.85776C0.0594538 2.92133 0.0998746 2.97886 0.151893 3.02637C0.242402 3.11 0.361611 3.16079 0.488296 3.16968C0.614981 3.17858 0.740921 3.14501 0.843692 3.07495C2.86849 1.70409 5.30297 0.967972 7.8 0.971559C10.3963 0.971559 12.799 1.75074 14.7563 3.07398C14.9676 3.21777 15.2627 3.20028 15.4481 3.02637Z" fill="#1F1F1F"/>
<path d="M13.2154 5.12106C13.4391 4.91121 13.4164 4.55951 13.1502 4.39726C11.5578 3.42692 9.699 2.91183 7.80015 2.91468C5.82728 2.91468 3.98904 3.45875 2.4501 4.39726C2.38853 4.43624 2.33706 4.48766 2.29947 4.54776C2.26187 4.60785 2.23911 4.67508 2.23285 4.74451C2.22659 4.81394 2.23699 4.88381 2.2633 4.94897C2.28961 5.01413 2.33114 5.07293 2.38486 5.12106C2.4731 5.20185 2.58799 5.25211 2.71068 5.26358C2.83337 5.27506 2.95658 5.24707 3.06009 5.18421C4.47478 4.33417 6.12015 3.88361 7.80015 3.88623C9.48015 3.88361 11.1255 4.33417 12.5402 5.18421C12.7525 5.31245 13.0373 5.28914 13.2154 5.12106ZM10.9547 7.24194C11.1887 7.02237 11.1463 6.65415 10.8511 6.51328C9.90611 6.0621 8.86049 5.8277 7.80015 5.82931C6.70239 5.82931 5.66469 6.07609 4.74919 6.51328C4.45404 6.65415 4.41158 7.02237 4.64563 7.24194L4.66116 7.25651C4.82686 7.41196 5.0837 7.4411 5.29393 7.34395C6.074 6.98529 6.93144 6.79949 7.80015 6.80086C8.69908 6.80086 9.55036 6.99614 10.3064 7.34492C10.5166 7.44207 10.7724 7.41293 10.9391 7.25651L10.9547 7.24194ZM8.89792 9.17142C9.1009 8.981 9.10297 8.66622 8.85649 8.5302C8.53698 8.35179 8.17198 8.25779 7.80015 8.25817C7.42833 8.25779 7.06332 8.35179 6.74381 8.5302C6.49733 8.66622 6.4994 8.981 6.70239 9.17142L7.43354 9.85733C7.48164 9.90257 7.53878 9.93846 7.60169 9.96295C7.6646 9.98744 7.73204 10 7.80015 10C7.86826 10 7.9357 9.98744 7.99861 9.96295C8.06152 9.93846 8.11866 9.90257 8.16676 9.85733L8.89895 9.17045L8.89792 9.17142Z" fill="#1F1F1F"/>
</svg>
