<svg width="19" height="10" viewBox="0 0 19 10" fill="none" xmlns="http://www.w3.org/2000/svg">
<path d="M2.34009 3.5C2.34009 2.94772 2.7878 2.5 3.34009 2.5H13.0401C13.5924 2.5 14.0401 2.94772 14.0401 3.5V6.5C14.0401 7.05228 13.5924 7.5 13.0401 7.5H3.34009C2.7878 7.5 2.34009 7.05228 2.34009 6.5V3.5Z" fill="#1F1F1F"/>
<path d="M2.34 0C1.71939 0 1.12421 0.263392 0.68537 0.732233C0.246535 1.20107 0 1.83696 0 2.5L0 7.5C0 8.16304 0.246535 8.79893 0.68537 9.26777C1.12421 9.73661 1.71939 10 2.34 10H14.04C14.6606 10 15.2558 9.73661 15.6946 9.26777C16.1335 8.79893 16.38 8.16304 16.38 7.5V2.5C16.38 1.83696 16.1335 1.20107 15.6946 0.732233C15.2558 0.263392 14.6606 0 14.04 0H2.34ZM14.04 1.25C14.3503 1.25 14.6479 1.3817 14.8673 1.61612C15.0867 1.85054 15.21 2.16848 15.21 2.5V7.5C15.21 7.83152 15.0867 8.14946 14.8673 8.38388C14.6479 8.6183 14.3503 8.75 14.04 8.75H2.34C2.0297 8.75 1.7321 8.6183 1.51269 8.38388C1.29327 8.14946 1.17 7.83152 1.17 7.5V2.5C1.17 2.16848 1.29327 1.85054 1.51269 1.61612C1.7321 1.3817 2.0297 1.25 2.34 1.25H14.04ZM18.72 5C18.72 5.49728 18.5351 5.97419 18.206 6.32583C17.8768 6.67746 17.4305 6.875 16.965 6.875V3.125C17.4305 3.125 17.8768 3.32254 18.206 3.67417C18.5351 4.02581 18.72 4.50272 18.72 5Z" fill="#1F1F1F"/>
</svg>
