<svg width="16" height="12" viewBox="0 0 16 12" fill="none" xmlns="http://www.w3.org/2000/svg">
<path d="M15.5621 3.39712C15.6145 3.34379 15.6552 3.27922 15.6814 3.20785C15.7077 3.13649 15.7188 3.06002 15.714 2.98373C15.7093 2.90744 15.6887 2.83314 15.6539 2.76594C15.619 2.69874 15.5706 2.64024 15.512 2.59447C13.2878 0.90397 10.6075 -0.00450762 7.85755 1.85489e-05C5.10755 -0.00473367 2.42719 0.903766 0.203091 2.59447C0.144506 2.64024 0.0961082 2.69874 0.0612327 2.76594C0.0263571 2.83314 0.00583238 2.90744 0.00107269 2.98373C-0.00368701 3.06002 0.0074314 3.13649 0.0336619 3.20785C0.0598924 3.27922 0.100612 3.34379 0.153014 3.39712C0.244191 3.491 0.364279 3.54801 0.491899 3.55799C0.619519 3.56798 0.746387 3.53029 0.849917 3.45165C2.88965 1.91285 5.3421 1.08656 7.85755 1.09058C10.473 1.09058 12.8934 1.96521 14.8652 3.45056C15.078 3.61197 15.3753 3.59234 15.5621 3.39712Z" fill="white"/>
<path d="M13.3132 5.74866C13.5386 5.51309 13.5156 5.11831 13.2475 4.93619C11.6433 3.84698 9.77083 3.26878 7.85796 3.27199C5.87054 3.27199 4.01874 3.8827 2.46844 4.93619C2.40642 4.97994 2.35457 5.03767 2.31669 5.10512C2.27882 5.17257 2.25589 5.24804 2.24958 5.32598C2.24328 5.40392 2.25376 5.48234 2.28026 5.55548C2.30676 5.62863 2.3486 5.69464 2.40271 5.74866C2.4916 5.83935 2.60734 5.89576 2.73094 5.90864C2.85454 5.92152 2.97866 5.8901 3.08293 5.81954C4.50805 4.86536 6.16557 4.35961 7.85796 4.36255C9.55036 4.35961 11.2079 4.86536 12.633 5.81954C12.8469 5.9635 13.1338 5.93732 13.3132 5.74866ZM11.0358 8.12936C11.2715 7.88289 11.2288 7.46957 10.9314 7.31144C9.97946 6.80499 8.92613 6.54186 7.85796 6.54368C6.7521 6.54368 5.70675 6.82068 4.7845 7.31144C4.48716 7.46957 4.44439 7.88289 4.68017 8.12936L4.69582 8.14572C4.86274 8.32021 5.12147 8.35292 5.33325 8.24387C6.11907 7.84128 6.98284 7.63271 7.85796 7.63424C8.76352 7.63424 9.62109 7.85345 10.3827 8.24496C10.5945 8.35401 10.8521 8.3213 11.0201 8.14572L11.0358 8.12936ZM8.96383 10.2952C9.16831 10.0815 9.1704 9.72812 8.9221 9.57544C8.60023 9.37518 8.23253 9.26966 7.85796 9.27009C7.4834 9.26966 7.1157 9.37518 6.79383 9.57544C6.54553 9.72812 6.54762 10.0815 6.7521 10.2952L7.48865 11.0652C7.5371 11.1159 7.59467 11.1562 7.65804 11.1837C7.72141 11.2112 7.78935 11.2254 7.85796 11.2254C7.92658 11.2254 7.99452 11.2112 8.05789 11.1837C8.12126 11.1562 8.17883 11.1159 8.22728 11.0652L8.96487 10.2941L8.96383 10.2952Z" fill="white"/>
</svg>
