<svg width="19" height="11" viewBox="0 0 19 11" fill="none" xmlns="http://www.w3.org/2000/svg">
<path d="M2.26636 3.69849C2.26636 3.1462 2.71407 2.69849 3.26636 2.69849H12.5994C13.1516 2.69849 13.5994 3.1462 13.5994 3.69849V7.09516C13.5994 7.64744 13.1516 8.09516 12.5994 8.09516H3.26636C2.71407 8.09516 2.26636 7.64744 2.26636 7.09516V3.69849Z" fill="white"/>
<path d="M2.2666 0C1.66546 0 1.08894 0.284288 0.663872 0.790324C0.238802 1.29636 0 1.98269 0 2.69833L0 8.095C0 8.81065 0.238802 9.49698 0.663872 10.003C1.08894 10.5091 1.66546 10.7933 2.2666 10.7933H13.5996C14.2007 10.7933 14.7773 10.5091 15.2023 10.003C15.6274 9.49698 15.8662 8.81065 15.8662 8.095V2.69833C15.8662 1.98269 15.6274 1.29636 15.2023 0.790324C14.7773 0.284288 14.2007 0 13.5996 0H2.2666ZM13.5996 1.34917C13.9002 1.34917 14.1884 1.49131 14.401 1.74433C14.6135 1.99735 14.7329 2.34051 14.7329 2.69833V8.095C14.7329 8.45283 14.6135 8.79599 14.401 9.04901C14.1884 9.30203 13.9002 9.44417 13.5996 9.44417H2.2666C1.96603 9.44417 1.67777 9.30203 1.46524 9.04901C1.2527 8.79599 1.1333 8.45283 1.1333 8.095V2.69833C1.1333 2.34051 1.2527 1.99735 1.46524 1.74433C1.67777 1.49131 1.96603 1.34917 2.2666 1.34917H13.5996ZM18.1328 5.39667C18.1328 5.9334 17.9537 6.44815 17.6349 6.82768C17.3161 7.2072 16.8837 7.42042 16.4329 7.42042V3.37292C16.8837 3.37292 17.3161 3.58613 17.6349 3.96566C17.9537 4.34519 18.1328 4.85994 18.1328 5.39667Z" fill="white"/>
</svg>
